<svg id="svg" version="1.1" xmlns="http://www.w3.org/2000/svg" xmlns:xlink="http://www.w3.org/1999/xlink" width="400" height="406.4" viewBox="0, 0, 400,406.4"><g id="svgg"><path id="path0" d="M0.000 3.600 L 0.000 7.200 1.246 7.200 C 2.195 7.200,2.851 6.808,3.996 5.556 C 5.114 4.332,5.946 3.825,7.249 3.573 C 9.651 3.109,390.966 3.118,392.966 3.582 C 394.006 3.823,395.033 4.493,396.020 5.573 C 397.150 6.809,397.807 7.200,398.754 7.200 L 400.000 7.200 400.000 3.600 L 400.000 0.000 200.000 0.000 L 0.000 0.000 0.000 3.600 M4.851 8.191 L 3.200 9.982 3.200 41.531 C 3.200 74.971,3.219 75.323,5.075 76.029 C 5.671 76.255,81.227 76.400,198.997 76.400 C 406.593 76.400,393.200 76.276,393.200 78.200 C 393.200 80.082,395.675 80.000,338.631 80.000 C 282.198 80.000,283.096 79.970,282.371 81.875 C 281.871 83.192,281.871 326.408,282.371 327.725 C 283.096 329.630,282.198 329.600,338.631 329.600 C 395.675 329.600,393.200 329.518,393.200 331.400 C 393.200 333.324,406.593 333.200,198.997 333.200 C 81.227 333.200,5.671 333.345,5.075 333.571 C 3.225 334.275,3.200 334.715,3.200 366.512 L 3.200 396.505 4.947 398.253 L 6.695 400.000 200.000 400.000 L 393.305 400.000 395.053 398.253 L 396.800 396.505 396.800 203.200 L 396.800 9.895 395.053 8.147 L 393.305 6.400 199.904 6.400 L 6.502 6.400 4.851 8.191 M98.171 42.229 C 98.961 43.018,98.961 43.382,98.171 44.171 C 97.214 45.129,37.186 45.129,36.229 44.171 C 35.883 43.826,35.600 43.389,35.600 43.200 C 35.600 43.011,35.883 42.574,36.229 42.229 C 37.186 41.271,97.214 41.271,98.171 42.229 M280.571 42.229 C 280.917 42.574,281.200 43.011,281.200 43.200 C 281.200 44.809,281.374 44.800,249.600 44.800 C 217.826 44.800,218.000 44.809,218.000 43.200 C 218.000 43.011,218.283 42.574,218.629 42.229 C 219.586 41.271,279.614 41.271,280.571 42.229 M360.571 42.229 C 360.917 42.574,361.200 43.011,361.200 43.200 C 361.200 44.809,361.374 44.800,329.600 44.800 C 297.826 44.800,298.000 44.809,298.000 43.200 C 298.000 43.011,298.283 42.574,298.629 42.229 C 299.586 41.271,359.614 41.271,360.571 42.229 M4.000 80.800 C 2.736 82.064,2.736 327.536,4.000 328.800 C 4.955 329.755,113.264 330.094,115.969 329.151 C 118.084 328.413,118.000 333.571,118.000 204.800 C 118.000 76.029,118.084 81.187,115.969 80.449 C 113.264 79.506,4.955 79.845,4.000 80.800 M122.400 80.800 C 121.603 81.597,121.600 82.133,121.600 204.800 C 121.600 327.467,121.603 328.003,122.400 328.800 C 123.194 329.594,123.733 329.600,200.000 329.600 C 276.267 329.600,276.806 329.594,277.600 328.800 C 278.864 327.536,278.864 82.064,277.600 80.800 C 276.337 79.537,123.663 79.537,122.400 80.800 M82.171 112.629 C 82.517 112.974,82.800 113.411,82.800 113.600 C 82.800 115.177,82.465 115.200,59.200 115.200 C 35.935 115.200,35.600 115.177,35.600 113.600 C 35.600 113.411,35.883 112.974,36.229 112.629 C 37.184 111.673,81.216 111.673,82.171 112.629 M245.371 112.629 C 245.717 112.974,246.000 113.411,246.000 113.600 C 246.000 115.239,247.107 115.200,200.000 115.200 C 152.893 115.200,154.000 115.239,154.000 113.600 C 154.000 113.411,154.283 112.974,154.629 112.629 C 155.589 111.668,244.411 111.668,245.371 112.629 M360.571 112.629 C 360.917 112.974,361.200 113.411,361.200 113.600 C 361.200 115.177,360.865 115.200,337.600 115.200 C 314.335 115.200,314.000 115.177,314.000 113.600 C 314.000 113.411,314.283 112.974,314.629 112.629 C 315.584 111.673,359.616 111.673,360.571 112.629 M72.800 132.000 C 73.333 132.533,73.600 133.333,73.600 134.400 C 73.600 137.732,74.392 137.600,54.400 137.600 C 34.408 137.600,35.200 137.732,35.200 134.400 C 35.200 131.068,34.408 131.200,54.400 131.200 C 71.467 131.200,72.024 131.224,72.800 132.000 M207.200 132.000 C 207.733 132.533,208.000 133.333,208.000 134.400 C 208.000 137.816,209.839 137.600,180.800 137.600 C 151.761 137.600,153.600 137.816,153.600 134.400 C 153.600 130.984,151.761 131.200,180.800 131.200 C 205.867 131.200,206.417 131.217,207.200 132.000 M351.200 132.000 C 351.733 132.533,352.000 133.333,352.000 134.400 C 352.000 137.732,352.792 137.600,332.800 137.600 C 312.808 137.600,313.600 137.732,313.600 134.400 C 313.600 131.068,312.808 131.200,332.800 131.200 C 349.867 131.200,350.424 131.224,351.200 132.000 M226.171 154.229 C 226.961 155.018,226.961 155.382,226.171 156.171 C 225.213 157.130,155.587 157.130,154.629 156.171 C 154.283 155.826,154.000 155.389,154.000 155.200 C 154.000 155.011,154.283 154.574,154.629 154.229 C 155.587 153.270,225.213 153.270,226.171 154.229 M245.371 189.429 C 245.717 189.774,246.000 190.211,246.000 190.400 C 246.000 192.039,247.107 192.000,200.000 192.000 C 152.893 192.000,154.000 192.039,154.000 190.400 C 154.000 190.211,154.283 189.774,154.629 189.429 C 155.589 188.468,244.411 188.468,245.371 189.429 M206.971 208.629 C 207.317 208.974,207.600 209.411,207.600 209.600 C 207.600 211.192,207.467 211.200,180.800 211.200 C 154.133 211.200,154.000 211.192,154.000 209.600 C 154.000 209.411,154.283 208.974,154.629 208.629 C 155.585 207.672,206.015 207.672,206.971 208.629 M226.400 228.000 C 226.933 228.533,227.200 229.333,227.200 230.400 C 227.200 233.870,230.308 233.600,190.400 233.600 C 150.492 233.600,153.600 233.870,153.600 230.400 C 153.600 226.930,150.492 227.200,190.400 227.200 C 225.067 227.200,225.612 227.212,226.400 228.000 M98.171 365.429 C 98.961 366.218,98.961 366.582,98.171 367.371 C 97.214 368.329,37.186 368.329,36.229 367.371 C 35.883 367.026,35.600 366.589,35.600 366.400 C 35.600 366.211,35.883 365.774,36.229 365.429 C 37.186 364.471,97.214 364.471,98.171 365.429 M178.171 365.429 C 178.517 365.774,178.800 366.211,178.800 366.400 C 178.800 368.009,178.974 368.000,147.200 368.000 C 115.426 368.000,115.600 368.009,115.600 366.400 C 115.600 366.211,115.883 365.774,116.229 365.429 C 117.186 364.471,177.214 364.471,178.171 365.429 M258.171 365.429 C 258.517 365.774,258.800 366.211,258.800 366.400 C 258.800 368.009,258.974 368.000,227.200 368.000 C 195.426 368.000,195.600 368.009,195.600 366.400 C 195.600 366.211,195.883 365.774,196.229 365.429 C 197.186 364.471,257.214 364.471,258.171 365.429 M0.000 403.000 L 0.000 406.400 23.267 406.400 C 36.063 406.400,46.454 406.321,46.357 406.224 C 45.698 405.565,36.781 404.780,25.800 404.414 C 7.334 403.799,4.000 403.442,4.000 402.079 C 4.000 401.274,1.986 399.600,1.019 399.600 C 0.007 399.600,0.000 399.623,0.000 403.000 M396.981 400.658 C 396.441 401.241,396.000 401.880,396.000 402.079 C 396.000 403.442,392.666 403.799,374.200 404.414 C 363.219 404.780,354.302 405.565,353.643 406.224 C 353.546 406.321,363.937 406.400,376.733 406.400 L 400.000 406.400 400.000 403.000 C 400.000 399.120,399.073 398.401,396.981 400.658 " stroke="none" fill="#fcfcfc" fill-rule="evenodd"></path><path id="path1" d="M7.060 3.589 C 5.987 3.797,5.063 4.388,4.007 5.543 C 2.852 6.807,2.197 7.200,1.246 7.200 L 0.000 7.200 0.000 203.400 L 0.000 399.600 1.019 399.600 C 1.986 399.600,4.000 401.274,4.000 402.079 C 4.000 403.184,7.169 403.678,16.570 404.040 C 35.191 404.758,41.826 405.170,44.600 405.782 C 48.868 406.724,351.132 406.724,355.400 405.782 C 358.174 405.170,364.809 404.758,383.430 404.040 C 392.831 403.678,396.000 403.184,396.000 402.079 C 396.000 401.274,398.014 399.600,398.981 399.600 L 400.000 399.600 400.000 203.400 L 400.000 7.200 398.754 7.200 C 397.807 7.200,397.150 6.809,396.020 5.573 C 395.033 4.493,394.006 3.823,392.966 3.582 C 391.080 3.145,9.325 3.152,7.060 3.589 M395.053 8.147 L 396.800 9.895 396.800 203.200 L 396.800 396.505 395.053 398.253 L 393.305 400.000 200.000 400.000 L 6.695 400.000 4.947 398.253 L 3.200 396.505 3.200 366.512 C 3.200 334.715,3.225 334.275,5.075 333.571 C 5.671 333.345,81.227 333.200,198.997 333.200 C 406.593 333.200,393.200 333.324,393.200 331.400 C 393.200 329.518,395.675 329.600,338.631 329.600 C 282.198 329.600,283.096 329.630,282.371 327.725 C 281.871 326.408,281.871 83.192,282.371 81.875 C 283.096 79.970,282.198 80.000,338.631 80.000 C 395.675 80.000,393.200 80.082,393.200 78.200 C 393.200 76.276,406.593 76.400,198.997 76.400 C 81.227 76.400,5.671 76.255,5.075 76.029 C 3.219 75.323,3.200 74.971,3.200 41.531 L 3.200 9.982 4.851 8.191 L 6.502 6.400 199.904 6.400 L 393.305 6.400 395.053 8.147 M36.229 42.229 C 35.883 42.574,35.600 43.011,35.600 43.200 C 35.600 43.389,35.883 43.826,36.229 44.171 C 37.186 45.129,97.214 45.129,98.171 44.171 C 98.961 43.382,98.961 43.018,98.171 42.229 C 97.214 41.271,37.186 41.271,36.229 42.229 M218.629 42.229 C 218.283 42.574,218.000 43.011,218.000 43.200 C 218.000 44.809,217.826 44.800,249.600 44.800 C 281.374 44.800,281.200 44.809,281.200 43.200 C 281.200 43.011,280.917 42.574,280.571 42.229 C 279.614 41.271,219.586 41.271,218.629 42.229 M298.629 42.229 C 298.283 42.574,298.000 43.011,298.000 43.200 C 298.000 44.809,297.826 44.800,329.600 44.800 C 361.374 44.800,361.200 44.809,361.200 43.200 C 361.200 43.011,360.917 42.574,360.571 42.229 C 359.614 41.271,299.586 41.271,298.629 42.229 M115.969 80.449 C 118.084 81.187,118.000 76.029,118.000 204.800 C 118.000 333.571,118.084 328.413,115.969 329.151 C 113.264 330.094,4.955 329.755,4.000 328.800 C 2.736 327.536,2.736 82.064,4.000 80.800 C 4.955 79.845,113.264 79.506,115.969 80.449 M277.600 80.800 C 278.864 82.064,278.864 327.536,277.600 328.800 C 276.806 329.594,276.267 329.600,200.000 329.600 C 123.733 329.600,123.194 329.594,122.400 328.800 C 121.603 328.003,121.600 327.467,121.600 204.800 C 121.600 82.133,121.603 81.597,122.400 80.800 C 123.663 79.537,276.337 79.537,277.600 80.800 M36.229 112.629 C 35.883 112.974,35.600 113.411,35.600 113.600 C 35.600 115.177,35.935 115.200,59.200 115.200 C 82.465 115.200,82.800 115.177,82.800 113.600 C 82.800 113.411,82.517 112.974,82.171 112.629 C 81.216 111.673,37.184 111.673,36.229 112.629 M154.629 112.629 C 154.283 112.974,154.000 113.411,154.000 113.600 C 154.000 115.239,152.893 115.200,200.000 115.200 C 247.107 115.200,246.000 115.239,246.000 113.600 C 246.000 113.411,245.717 112.974,245.371 112.629 C 244.411 111.668,155.589 111.668,154.629 112.629 M314.629 112.629 C 314.283 112.974,314.000 113.411,314.000 113.600 C 314.000 115.177,314.335 115.200,337.600 115.200 C 360.865 115.200,361.200 115.177,361.200 113.600 C 361.200 113.411,360.917 112.974,360.571 112.629 C 359.616 111.673,315.584 111.673,314.629 112.629 M36.000 132.000 C 35.467 132.533,35.200 133.333,35.200 134.400 C 35.200 137.732,34.408 137.600,54.400 137.600 C 74.392 137.600,73.600 137.732,73.600 134.400 C 73.600 131.068,74.392 131.200,54.400 131.200 C 37.333 131.200,36.776 131.224,36.000 132.000 M154.400 132.000 C 153.867 132.533,153.600 133.333,153.600 134.400 C 153.600 137.816,151.761 137.600,180.800 137.600 C 209.839 137.600,208.000 137.816,208.000 134.400 C 208.000 130.984,209.839 131.200,180.800 131.200 C 155.733 131.200,155.183 131.217,154.400 132.000 M314.400 132.000 C 313.867 132.533,313.600 133.333,313.600 134.400 C 313.600 137.732,312.808 137.600,332.800 137.600 C 352.792 137.600,352.000 137.732,352.000 134.400 C 352.000 131.068,352.792 131.200,332.800 131.200 C 315.733 131.200,315.176 131.224,314.400 132.000 M154.629 154.229 C 154.283 154.574,154.000 155.011,154.000 155.200 C 154.000 155.389,154.283 155.826,154.629 156.171 C 155.587 157.130,225.213 157.130,226.171 156.171 C 226.961 155.382,226.961 155.018,226.171 154.229 C 225.213 153.270,155.587 153.270,154.629 154.229 M154.629 189.429 C 154.283 189.774,154.000 190.211,154.000 190.400 C 154.000 192.039,152.893 192.000,200.000 192.000 C 247.107 192.000,246.000 192.039,246.000 190.400 C 246.000 190.211,245.717 189.774,245.371 189.429 C 244.411 188.468,155.589 188.468,154.629 189.429 M154.629 208.629 C 154.283 208.974,154.000 209.411,154.000 209.600 C 154.000 211.192,154.133 211.200,180.800 211.200 C 207.467 211.200,207.600 211.192,207.600 209.600 C 207.600 209.411,207.317 208.974,206.971 208.629 C 206.015 207.672,155.585 207.672,154.629 208.629 M154.400 228.000 C 153.867 228.533,153.600 229.333,153.600 230.400 C 153.600 233.870,150.492 233.600,190.400 233.600 C 230.308 233.600,227.200 233.870,227.200 230.400 C 227.200 226.930,230.308 227.200,190.400 227.200 C 155.733 227.200,155.188 227.212,154.400 228.000 M36.229 365.429 C 35.883 365.774,35.600 366.211,35.600 366.400 C 35.600 366.589,35.883 367.026,36.229 367.371 C 37.186 368.329,97.214 368.329,98.171 367.371 C 98.961 366.582,98.961 366.218,98.171 365.429 C 97.214 364.471,37.186 364.471,36.229 365.429 M116.229 365.429 C 115.883 365.774,115.600 366.211,115.600 366.400 C 115.600 368.009,115.426 368.000,147.200 368.000 C 178.974 368.000,178.800 368.009,178.800 366.400 C 178.800 366.211,178.517 365.774,178.171 365.429 C 177.214 364.471,117.186 364.471,116.229 365.429 M196.229 365.429 C 195.883 365.774,195.600 366.211,195.600 366.400 C 195.600 368.009,195.426 368.000,227.200 368.000 C 258.974 368.000,258.800 368.009,258.800 366.400 C 258.800 366.211,258.517 365.774,258.171 365.429 C 257.214 364.471,197.186 364.471,196.229 365.429 " stroke="none" fill="#b4b4b4" fill-rule="evenodd"></path></g></svg>