<svg id="svg" version="1.1" xmlns="http://www.w3.org/2000/svg" xmlns:xlink="http://www.w3.org/1999/xlink" width="400" height="400" viewBox="0, 0, 400,400"><g id="svgg"><path id="path0" d="M10.317 3.579 C 7.665 4.097,3.742 8.547,3.362 11.470 C 2.794 15.826,2.934 390.884,3.503 391.879 C 3.779 392.363,4.529 393.067,5.169 393.445 C 5.808 393.823,6.519 394.543,6.748 395.045 C 7.817 397.392,6.363 397.210,33.600 398.415 C 39.430 398.673,45.550 399.135,47.200 399.442 C 51.017 400.152,349.626 400.291,352.003 399.584 C 353.764 399.061,361.470 398.554,375.800 398.018 C 390.472 397.470,391.508 397.354,392.561 396.144 C 393.023 395.615,394.182 394.406,395.139 393.459 C 396.770 391.843,396.899 391.553,397.221 388.768 C 397.624 385.288,397.638 169.745,397.241 75.600 C 396.939 3.787,397.126 8.410,394.460 7.031 C 393.798 6.689,393.140 6.042,392.998 5.594 C 392.856 5.145,392.266 4.468,391.687 4.089 C 390.578 3.363,14.007 2.859,10.317 3.579 M391.737 7.598 C 392.487 8.257,393.305 9.292,393.555 9.898 C 393.891 10.715,393.981 60.081,393.904 200.694 L 393.800 390.388 392.094 392.094 L 390.388 393.800 201.294 393.913 C -5.957 394.037,10.227 394.202,7.997 391.950 L 6.400 390.337 6.400 200.159 L 6.400 9.982 8.051 8.191 L 9.702 6.400 200.037 6.400 L 390.372 6.400 391.737 7.598 M52.200 82.197 C 51.980 82.273,51.127 82.447,50.305 82.584 C 48.621 82.866,47.501 84.238,48.459 84.845 C 49.064 85.228,347.170 85.340,348.167 84.957 C 349.123 84.590,348.928 83.702,347.718 82.909 C 346.734 82.265,54.053 81.559,52.200 82.197 M45.062 85.931 C 44.146 86.943,44.217 88.000,45.200 88.000 C 46.140 88.000,47.600 86.661,47.600 85.800 C 47.600 84.950,45.869 85.040,45.062 85.931 M349.600 85.977 C 349.600 86.853,351.012 88.000,352.089 88.000 C 353.036 88.000,352.991 86.991,352.000 86.000 C 350.955 84.955,349.600 84.942,349.600 85.977 M41.681 88.902 C 40.731 90.047,40.660 91.600,41.557 91.600 C 42.624 91.600,44.000 90.248,44.000 89.200 C 44.000 88.275,42.375 88.066,41.681 88.902 M353.200 89.338 C 353.200 90.481,354.541 91.785,355.385 91.461 C 356.169 91.160,356.167 90.416,355.377 89.289 C 354.527 88.075,353.200 88.105,353.200 89.338 M38.909 93.082 C 38.235 94.112,38.200 99.434,38.200 201.871 L 38.200 309.578 39.060 310.437 C 40.859 312.237,40.800 315.942,40.800 201.376 C 40.800 83.657,40.911 90.027,38.909 93.082 M356.254 93.631 C 355.824 95.778,355.956 309.032,356.387 310.166 C 356.879 311.460,357.746 311.170,358.463 309.471 C 359.321 307.440,359.255 95.506,358.397 93.805 C 357.548 92.122,356.571 92.043,356.254 93.631 M309.062 110.731 C 307.443 112.520,308.246 114.673,311.965 118.513 C 317.257 123.976,317.260 123.756,311.791 129.389 C 308.025 133.269,307.924 133.421,308.125 134.920 C 308.730 139.428,312.193 138.941,317.322 133.626 C 321.960 128.819,322.084 128.824,327.458 134.000 C 332.298 138.661,333.140 138.940,335.440 136.640 C 337.527 134.553,337.317 134.005,332.600 129.218 C 327.241 123.780,327.249 123.874,331.773 119.248 C 336.319 114.601,337.278 111.881,334.820 110.610 C 332.346 109.331,331.159 109.955,325.627 115.446 C 322.358 118.690,322.351 118.689,317.880 114.415 C 313.204 109.945,310.715 108.905,309.062 110.731 M58.800 120.515 C 56.765 121.540,57.238 124.951,59.503 125.580 C 62.112 126.304,222.869 126.149,224.613 125.420 C 226.383 124.681,226.690 121.729,225.111 120.623 C 223.903 119.776,60.477 119.671,58.800 120.515 M57.829 177.029 C 57.483 177.374,57.200 177.811,57.200 178.000 C 57.200 178.189,57.483 178.626,57.829 178.971 C 58.601 179.744,337.386 179.957,338.826 179.186 C 339.822 178.653,339.822 177.347,338.826 176.814 C 337.386 176.043,58.601 176.256,57.829 177.029 M57.572 196.234 C 55.828 198.335,48.107 198.200,170.200 198.200 C 292.293 198.200,284.572 198.335,282.828 196.234 C 282.021 195.261,58.379 195.261,57.572 196.234 M57.423 215.289 C 57.080 215.778,56.800 216.728,56.800 217.400 C 56.800 218.072,57.080 219.022,57.423 219.511 L 58.045 220.400 141.800 220.400 L 225.555 220.400 226.177 219.511 C 226.520 219.022,226.800 218.072,226.800 217.400 C 226.800 216.728,226.520 215.778,226.177 215.289 L 225.555 214.400 141.800 214.400 L 58.045 214.400 57.423 215.289 M57.829 237.028 C 57.355 237.502,57.303 237.845,57.616 238.429 C 58.243 239.601,168.637 239.450,169.356 238.277 C 170.542 236.344,172.228 236.400,113.352 236.400 C 64.010 236.400,58.394 236.464,57.829 237.028 M131.278 271.621 C 127.325 273.206,124.746 275.289,122.485 278.722 L 120.200 282.191 120.200 286.595 L 120.200 291.000 121.942 293.866 C 124.623 298.274,128.505 301.261,132.550 302.029 C 135.123 302.516,198.874 302.517,201.446 302.029 C 203.756 301.591,209.263 298.399,210.347 296.870 C 216.964 287.538,214.767 278.008,204.778 272.708 L 201.935 271.200 167.067 271.225 C 146.706 271.240,131.816 271.405,131.278 271.621 M255.180 272.700 C 251.709 274.483,249.957 276.124,247.800 279.612 L 246.200 282.200 246.200 286.600 L 246.200 291.000 247.787 293.600 C 248.660 295.030,249.710 296.650,250.122 297.200 C 251.242 298.698,256.314 301.604,258.546 302.028 C 261.123 302.516,324.870 302.518,327.446 302.029 C 329.759 301.591,335.266 298.397,336.343 296.870 C 340.382 291.139,341.285 284.485,338.589 280.317 C 337.935 279.306,337.109 277.949,336.754 277.301 C 335.954 275.843,334.212 274.509,330.667 272.641 L 327.934 271.200 293.017 271.200 L 258.099 271.200 255.180 272.700 M41.453 311.881 C 40.575 312.758,41.571 314.800,42.877 314.800 C 43.313 314.800,43.869 315.386,44.297 316.300 C 45.136 318.086,47.600 318.794,47.600 317.248 C 47.600 316.285,46.175 315.200,44.911 315.200 C 44.235 315.200,43.998 314.968,43.994 314.300 C 43.984 312.913,42.159 311.175,41.453 311.881 M354.121 312.200 C 353.649 312.531,353.145 313.341,353.000 314.000 C 352.833 314.759,352.487 315.200,352.057 315.200 C 351.007 315.200,349.600 316.358,349.600 317.223 C 349.600 317.771,349.876 318.000,350.538 318.000 C 351.600 318.000,352.800 316.870,352.800 315.869 C 352.800 315.501,353.046 315.200,353.346 315.200 C 354.355 315.200,356.000 313.571,356.000 312.571 C 356.000 311.460,355.358 311.334,354.121 312.200 M48.552 318.981 C 47.664 321.296,40.913 321.197,198.800 321.175 C 354.784 321.154,348.453 321.233,348.728 319.300 L 348.856 318.400 198.815 318.400 C 68.014 318.400,48.746 318.474,48.552 318.981 " stroke="none" fill="#b4b4b4" fill-rule="evenodd"></path><path id="path1" d="M0.000 200.000 L 0.000 400.000 24.700 399.952 C 52.093 399.899,55.033 399.389,33.501 398.423 C 6.358 397.206,7.816 397.391,6.748 395.045 C 6.519 394.543,5.808 393.823,5.169 393.445 C 4.529 393.067,3.779 392.363,3.503 391.879 C 2.932 390.881,2.795 15.821,3.364 11.451 C 3.845 7.759,7.937 3.791,11.649 3.418 C 18.544 2.725,390.608 3.382,391.687 4.089 C 392.266 4.468,392.856 5.145,392.998 5.594 C 393.140 6.042,393.798 6.689,394.460 7.031 C 397.126 8.410,396.939 3.787,397.241 75.600 C 397.638 169.745,397.624 385.288,397.221 388.768 C 396.899 391.553,396.770 391.843,395.139 393.459 C 394.182 394.406,393.023 395.615,392.561 396.144 C 391.508 397.354,390.472 397.470,375.800 398.018 C 344.913 399.172,344.798 399.923,375.500 399.966 L 400.000 400.000 400.000 200.000 L 400.000 0.000 200.000 0.000 L 0.000 0.000 0.000 200.000 M8.051 8.191 L 6.400 9.982 6.400 200.159 L 6.400 390.337 7.997 391.950 C 10.227 394.202,-5.957 394.037,201.294 393.913 L 390.388 393.800 392.094 392.094 L 393.800 390.388 393.904 200.694 C 393.981 60.081,393.891 10.715,393.555 9.898 C 393.305 9.292,392.487 8.257,391.737 7.598 L 390.372 6.400 200.037 6.400 L 9.702 6.400 8.051 8.191 M347.718 82.909 C 348.928 83.702,349.123 84.590,348.167 84.957 C 347.170 85.340,49.064 85.228,48.459 84.845 C 47.501 84.238,48.621 82.866,50.305 82.584 C 51.127 82.447,51.980 82.273,52.200 82.197 C 54.053 81.559,346.734 82.265,347.718 82.909 M47.600 85.800 C 47.600 86.661,46.140 88.000,45.200 88.000 C 44.217 88.000,44.146 86.943,45.062 85.931 C 45.869 85.040,47.600 84.950,47.600 85.800 M352.000 86.000 C 352.991 86.991,353.036 88.000,352.089 88.000 C 351.012 88.000,349.600 86.853,349.600 85.977 C 349.600 84.942,350.955 84.955,352.000 86.000 M44.000 89.200 C 44.000 90.248,42.624 91.600,41.557 91.600 C 40.660 91.600,40.731 90.047,41.681 88.902 C 42.375 88.066,44.000 88.275,44.000 89.200 M355.377 89.289 C 356.167 90.416,356.169 91.160,355.385 91.461 C 354.541 91.785,353.200 90.481,353.200 89.338 C 353.200 88.105,354.527 88.075,355.377 89.289 M40.800 201.376 C 40.800 315.942,40.859 312.237,39.060 310.437 L 38.200 309.578 38.200 201.871 C 38.200 99.434,38.235 94.112,38.909 93.082 C 40.911 90.027,40.800 83.657,40.800 201.376 M358.397 93.805 C 359.255 95.506,359.321 307.440,358.463 309.471 C 357.746 311.170,356.879 311.460,356.387 310.166 C 355.956 309.032,355.824 95.778,356.254 93.631 C 356.571 92.043,357.548 92.122,358.397 93.805 M313.039 110.415 C 313.639 110.643,315.817 112.443,317.880 114.415 C 322.351 118.689,322.358 118.690,325.627 115.446 C 331.159 109.955,332.346 109.331,334.820 110.610 C 337.278 111.881,336.319 114.601,331.773 119.248 C 327.249 123.874,327.241 123.780,332.600 129.218 C 337.317 134.005,337.527 134.553,335.440 136.640 C 333.140 138.940,332.298 138.661,327.458 134.000 C 322.084 128.824,321.960 128.819,317.322 133.626 C 312.193 138.941,308.730 139.428,308.125 134.920 C 307.924 133.421,308.025 133.269,311.791 129.389 C 317.260 123.756,317.257 123.976,311.965 118.513 C 306.685 113.061,307.324 108.242,313.039 110.415 M225.111 120.623 C 226.690 121.729,226.383 124.681,224.613 125.420 C 222.869 126.149,62.112 126.304,59.503 125.580 C 57.238 124.951,56.765 121.540,58.800 120.515 C 60.477 119.671,223.903 119.776,225.111 120.623 M338.826 176.814 C 339.822 177.347,339.822 178.653,338.826 179.186 C 337.386 179.957,58.601 179.744,57.829 178.971 C 57.483 178.626,57.200 178.189,57.200 178.000 C 57.200 177.811,57.483 177.374,57.829 177.029 C 58.601 176.256,337.386 176.043,338.826 176.814 M282.828 196.234 C 284.572 198.335,292.293 198.200,170.200 198.200 C 48.107 198.200,55.828 198.335,57.572 196.234 C 58.379 195.261,282.021 195.261,282.828 196.234 M226.177 215.289 C 226.520 215.778,226.800 216.728,226.800 217.400 C 226.800 218.072,226.520 219.022,226.177 219.511 L 225.555 220.400 141.800 220.400 L 58.045 220.400 57.423 219.511 C 57.080 219.022,56.800 218.072,56.800 217.400 C 56.800 216.728,57.080 215.778,57.423 215.289 L 58.045 214.400 141.800 214.400 L 225.555 214.400 226.177 215.289 M169.024 236.977 C 169.645 237.438,169.712 237.697,169.356 238.277 C 168.637 239.450,58.243 239.601,57.616 238.429 C 57.303 237.845,57.355 237.502,57.829 237.028 C 58.744 236.113,167.793 236.063,169.024 236.977 M204.778 272.708 C 214.767 278.008,216.964 287.538,210.347 296.870 C 209.263 298.399,203.756 301.591,201.446 302.029 C 198.874 302.517,135.123 302.516,132.550 302.029 C 128.505 301.261,124.623 298.274,121.942 293.866 L 120.200 291.000 120.200 286.595 L 120.200 282.191 122.485 278.722 C 124.746 275.289,127.325 273.206,131.278 271.621 C 131.816 271.405,146.706 271.240,167.067 271.225 L 201.935 271.200 204.778 272.708 M330.667 272.641 C 334.212 274.509,335.954 275.843,336.754 277.301 C 337.109 277.949,337.935 279.306,338.589 280.317 C 341.285 284.485,340.382 291.139,336.343 296.870 C 335.266 298.397,329.759 301.591,327.446 302.029 C 324.870 302.518,261.123 302.516,258.546 302.028 C 256.314 301.604,251.242 298.698,250.122 297.200 C 249.710 296.650,248.660 295.030,247.787 293.600 L 246.200 291.000 246.200 286.600 L 246.200 282.200 247.800 279.612 C 249.957 276.124,251.709 274.483,255.180 272.700 L 258.099 271.200 293.017 271.200 L 327.934 271.200 330.667 272.641 M43.694 312.960 C 43.856 313.202,43.991 313.805,43.994 314.300 C 43.998 314.968,44.235 315.200,44.911 315.200 C 46.175 315.200,47.600 316.285,47.600 317.248 C 47.600 318.794,45.136 318.086,44.297 316.300 C 43.869 315.386,43.313 314.800,42.877 314.800 C 41.571 314.800,40.575 312.758,41.453 311.881 C 41.747 311.587,43.265 312.318,43.694 312.960 M356.000 312.571 C 356.000 313.571,354.355 315.200,353.346 315.200 C 353.046 315.200,352.800 315.501,352.800 315.869 C 352.800 316.870,351.600 318.000,350.538 318.000 C 349.876 318.000,349.600 317.771,349.600 317.223 C 349.600 316.358,351.007 315.200,352.057 315.200 C 352.487 315.200,352.833 314.759,353.000 314.000 C 353.452 311.942,356.000 310.728,356.000 312.571 M348.728 319.300 C 348.453 321.233,354.784 321.154,198.800 321.175 C 53.996 321.195,49.315 321.158,48.579 319.966 C 47.567 318.328,40.666 318.400,198.815 318.400 L 348.856 318.400 348.728 319.300 " stroke="none" fill="#fbfbfb" fill-rule="evenodd"></path></g></svg>