<svg id="svg" version="1.1" xmlns="http://www.w3.org/2000/svg" xmlns:xlink="http://www.w3.org/1999/xlink" width="400" height="400" viewBox="0, 0, 400,400"><g id="svgg"><path id="path0" d="M0.000 200.000 L 0.000 400.000 11.800 400.000 C 19.400 400.000,23.600 399.858,23.600 399.600 C 23.600 399.380,23.870 399.200,24.200 399.200 C 24.530 399.200,24.800 399.020,24.800 398.800 C 24.800 398.580,24.529 398.400,24.197 398.400 C 23.866 398.400,23.218 397.967,22.757 397.437 C 21.785 396.319,21.061 396.155,14.606 395.596 C 7.945 395.018,6.878 394.685,6.153 392.950 C 5.765 392.021,5.164 391.406,4.375 391.131 C 2.227 390.382,2.248 390.582,1.886 367.600 C 1.153 321.083,2.249 11.101,3.155 8.718 C 3.651 7.414,7.384 3.662,8.673 3.172 C 9.272 2.944,82.974 2.800,198.639 2.800 C 396.833 2.800,390.400 2.749,390.400 4.335 C 390.400 4.541,391.193 5.515,392.162 6.498 C 393.790 8.149,393.941 8.480,394.141 10.843 C 394.971 20.626,395.619 379.878,394.819 386.786 C 394.495 389.590,394.376 389.859,392.873 391.186 C 391.993 391.964,391.074 392.999,390.830 393.486 C 390.252 394.642,388.551 395.065,382.400 395.586 C 375.747 396.150,374.875 396.334,374.587 397.241 C 374.455 397.657,373.909 398.108,373.373 398.242 C 372.308 398.510,372.039 399.200,373.000 399.200 C 373.330 399.200,373.600 399.380,373.600 399.600 C 373.600 399.859,378.267 400.000,386.800 400.000 L 400.000 400.000 400.000 200.000 L 400.000 0.000 200.000 0.000 L 0.000 0.000 0.000 200.000 M10.200 7.262 C 9.760 7.486,8.815 8.393,8.100 9.278 L 6.800 10.887 6.800 198.993 C 6.800 302.452,6.705 387.618,6.589 388.250 C 6.473 388.882,6.531 389.629,6.718 389.908 C 7.275 390.742,156.601 390.622,157.875 389.788 L 158.797 389.183 158.899 199.756 L 159.000 10.329 159.944 9.565 C 160.869 8.816,163.225 8.800,273.821 8.800 C 389.624 8.800,388.600 8.813,386.585 7.339 C 385.645 6.652,11.548 6.575,10.200 7.262 M388.250 10.850 C 387.906 12.572,388.012 384.357,388.357 385.598 C 388.790 387.154,389.908 387.109,390.190 385.525 C 390.798 382.118,390.213 10.379,389.600 9.992 C 388.675 9.407,388.519 9.505,388.250 10.850 M142.097 24.820 C 143.882 25.316,144.536 26.835,143.438 27.934 C 142.549 28.823,24.940 29.167,23.200 28.286 C 21.318 27.334,21.788 25.011,23.929 24.684 C 26.503 24.290,140.662 24.422,142.097 24.820 M142.800 43.718 C 143.525 44.085,143.800 44.547,143.800 45.400 C 143.800 47.697,146.835 47.588,83.000 47.588 C 19.165 47.588,22.200 47.697,22.200 45.400 C 22.200 44.547,22.475 44.085,23.200 43.718 C 24.667 42.975,141.333 42.975,142.800 43.718 M142.800 62.518 C 143.525 62.885,143.800 63.347,143.800 64.200 C 143.800 66.497,146.835 66.388,83.000 66.388 C 19.165 66.388,22.200 66.497,22.200 64.200 C 22.200 61.903,19.165 62.012,83.000 62.012 C 129.613 62.012,142.007 62.117,142.800 62.518 M118.358 81.762 C 119.520 82.813,119.545 86.055,118.400 87.200 C 117.609 87.991,117.067 88.000,70.400 88.000 C 23.733 88.000,23.191 87.991,22.400 87.200 C 20.747 85.547,21.467 81.875,23.600 81.081 C 25.559 80.352,117.531 81.013,118.358 81.762 " stroke="none" fill="#fbfbfb" fill-rule="evenodd"></path><path id="path1" d="M8.551 3.194 C 7.347 3.680,3.620 7.496,3.155 8.718 C 2.249 11.101,1.153 321.083,1.886 367.600 C 2.248 390.582,2.227 390.382,4.375 391.131 C 5.164 391.406,5.765 392.021,6.153 392.950 C 6.878 394.685,7.945 395.018,14.606 395.596 C 21.061 396.155,21.785 396.319,22.757 397.437 C 23.218 397.967,23.866 398.400,24.197 398.400 C 24.529 398.400,24.800 398.580,24.800 398.800 C 24.800 399.020,24.530 399.200,24.200 399.200 C 23.870 399.200,23.600 399.380,23.600 399.600 C 23.600 399.866,82.200 400.000,198.600 400.000 C 315.000 400.000,373.600 399.866,373.600 399.600 C 373.600 399.380,373.330 399.200,373.000 399.200 C 372.039 399.200,372.308 398.510,373.373 398.242 C 373.909 398.108,374.455 397.657,374.587 397.241 C 374.875 396.334,375.747 396.150,382.400 395.586 C 388.551 395.065,390.252 394.642,390.830 393.486 C 391.074 392.999,391.993 391.964,392.873 391.186 C 394.376 389.859,394.495 389.590,394.819 386.786 C 395.619 379.878,394.971 20.626,394.141 10.843 C 393.941 8.480,393.790 8.149,392.162 6.498 C 391.193 5.515,390.400 4.541,390.400 4.335 C 390.400 2.748,396.855 2.799,198.513 2.825 C 94.383 2.839,9.018 3.005,8.551 3.194 M386.585 7.339 C 388.600 8.813,389.624 8.800,273.821 8.800 C 163.225 8.800,160.869 8.816,159.944 9.565 L 159.000 10.329 158.899 199.756 L 158.797 389.183 157.875 389.788 C 156.601 390.622,7.275 390.742,6.718 389.908 C 6.531 389.629,6.473 388.882,6.589 388.250 C 6.705 387.618,6.800 302.452,6.800 198.993 L 6.800 10.887 8.100 9.278 C 8.815 8.393,9.760 7.486,10.200 7.262 C 11.548 6.575,385.645 6.652,386.585 7.339 M389.600 9.992 C 390.213 10.379,390.798 382.118,390.190 385.525 C 389.908 387.109,388.790 387.154,388.357 385.598 C 388.012 384.357,387.906 12.572,388.250 10.850 C 388.519 9.505,388.675 9.407,389.600 9.992 M23.929 24.684 C 21.788 25.011,21.318 27.334,23.200 28.286 C 24.940 29.167,142.549 28.823,143.438 27.934 C 144.536 26.835,143.882 25.316,142.097 24.820 C 140.662 24.422,26.503 24.290,23.929 24.684 M23.200 43.718 C 22.475 44.085,22.200 44.547,22.200 45.400 C 22.200 47.697,19.165 47.588,83.000 47.588 C 146.835 47.588,143.800 47.697,143.800 45.400 C 143.800 44.547,143.525 44.085,142.800 43.718 C 141.333 42.975,24.667 42.975,23.200 43.718 M23.200 62.518 C 22.475 62.885,22.200 63.347,22.200 64.200 C 22.200 66.497,19.165 66.388,83.000 66.388 C 146.835 66.388,143.800 66.497,143.800 64.200 C 143.800 61.903,146.835 62.012,83.000 62.012 C 36.387 62.012,23.993 62.117,23.200 62.518 M23.600 81.081 C 21.467 81.875,20.747 85.547,22.400 87.200 C 23.191 87.991,23.733 88.000,70.400 88.000 C 124.282 88.000,119.200 88.368,119.200 84.462 C 119.200 80.657,124.036 81.010,70.858 80.929 C 45.196 80.890,23.930 80.958,23.600 81.081 " stroke="none" fill="#cccccc" fill-rule="evenodd"></path></g></svg>