<svg id="svg" version="1.1" xmlns="http://www.w3.org/2000/svg" xmlns:xlink="http://www.w3.org/1999/xlink" width="400" height="400" viewBox="0, 0, 400,400"><g id="svgg"><path id="path0" d="M9.825 3.595 C 8.880 3.777,7.968 4.279,7.545 4.849 C 6.423 6.364,5.845 6.959,4.870 7.600 C 4.364 7.932,3.771 8.913,3.538 9.800 C 3.059 11.631,2.517 386.722,2.990 389.872 C 3.210 391.340,3.626 392.088,4.935 393.371 C 5.851 394.268,6.870 395.416,7.200 395.922 C 8.234 397.508,8.324 397.516,36.800 398.613 C 44.118 398.894,46.507 399.174,45.400 399.621 C 44.960 399.799,114.530 399.954,200.000 399.966 C 291.989 399.979,355.168 399.841,354.832 399.629 C 353.980 399.089,356.380 398.882,369.000 398.406 C 392.136 397.534,391.926 397.562,393.492 395.232 C 393.998 394.480,394.939 393.543,395.584 393.151 C 396.397 392.657,396.855 391.972,397.078 390.919 C 397.543 388.727,397.338 16.172,396.871 12.114 L 396.492 8.828 394.033 6.369 C 392.331 4.667,391.116 3.803,390.087 3.564 C 388.260 3.140,12.031 3.171,9.825 3.595 M391.833 8.100 L 393.620 9.800 393.613 200.000 C 393.607 383.286,393.580 390.235,392.878 391.175 C 392.478 391.712,391.711 392.478,391.175 392.879 C 390.234 393.581,383.346 393.608,200.000 393.614 L 9.800 393.620 8.100 391.833 L 6.400 390.047 6.400 199.971 L 6.400 9.895 8.147 8.147 L 9.895 6.400 199.971 6.400 L 390.047 6.400 391.833 8.100 M66.181 50.756 C 61.212 51.603,54.398 58.761,53.797 63.765 C 53.662 64.884,53.608 77.410,53.676 91.600 L 53.800 117.400 55.800 120.774 C 57.795 124.140,58.294 124.617,62.752 127.408 C 65.717 129.265,65.728 129.265,93.200 129.124 L 117.400 129.000 120.664 127.064 C 124.455 124.816,124.861 124.405,127.228 120.411 L 129.000 117.422 129.124 91.611 C 129.264 62.405,129.270 62.526,127.408 59.552 C 124.617 55.094,124.140 54.595,120.774 52.600 L 117.400 50.600 92.600 50.540 C 78.960 50.507,67.071 50.605,66.181 50.756 M173.400 50.762 C 169.429 51.462,165.150 54.897,162.551 59.470 L 161.000 62.200 160.886 88.590 C 160.742 121.985,160.738 121.965,169.336 127.064 L 172.600 129.000 197.030 129.000 L 221.460 129.000 224.030 127.441 C 228.296 124.852,228.956 124.219,231.018 120.742 L 233.000 117.400 233.124 91.600 C 233.192 77.410,233.138 64.884,233.003 63.765 C 232.538 59.897,228.895 55.116,224.292 52.334 L 221.422 50.600 198.211 50.540 C 185.445 50.507,174.280 50.606,173.400 50.762 M276.995 50.807 C 275.512 51.102,272.557 52.771,269.900 54.815 C 268.829 55.639,266.707 58.776,265.310 61.600 C 264.485 63.269,264.008 106.264,264.729 114.026 C 265.310 120.287,267.267 123.220,273.600 127.318 L 276.200 129.000 302.400 129.000 C 326.724 129.000,328.686 128.949,329.800 128.294 C 337.072 124.012,339.423 120.866,340.029 114.603 C 340.457 110.184,340.468 69.432,340.042 65.000 C 339.409 58.405,333.703 51.957,327.450 50.771 C 325.080 50.322,279.271 50.354,276.995 50.807 M65.787 161.173 C 61.899 162.105,58.204 165.149,55.572 169.589 L 53.800 172.578 53.675 197.989 C 53.517 230.168,53.356 228.850,58.090 234.188 C 62.646 239.325,64.212 239.578,91.400 239.578 C 115.016 239.578,117.284 239.414,120.600 237.457 C 124.309 235.269,124.739 234.890,126.042 232.672 C 126.711 231.532,127.650 229.970,128.129 229.200 L 129.000 227.800 129.000 200.200 L 129.000 172.600 127.064 169.336 C 124.422 164.881,121.013 162.116,117.028 161.196 C 115.129 160.757,67.610 160.736,65.787 161.173 M172.600 161.332 C 167.255 162.895,162.261 168.080,161.161 173.208 C 160.918 174.339,160.812 185.162,160.884 201.422 L 161.000 227.800 162.800 230.944 C 167.451 239.069,169.492 239.588,196.800 239.582 C 222.436 239.577,224.194 239.280,228.710 234.188 C 233.444 228.850,233.283 230.168,233.125 197.989 L 233.000 172.578 231.227 169.589 C 228.519 165.024,224.998 162.111,221.099 161.211 C 218.562 160.626,174.641 160.735,172.600 161.332 M276.800 161.179 C 271.027 162.432,265.431 168.939,264.776 175.160 C 264.337 179.333,264.325 220.489,264.761 225.050 C 265.201 229.637,268.171 234.402,272.016 236.687 C 276.998 239.648,274.222 239.400,302.426 239.400 L 327.851 239.400 330.826 237.858 C 336.319 235.009,339.509 230.559,340.042 225.000 C 340.475 220.493,340.461 179.312,340.026 175.200 C 339.417 169.458,336.698 165.590,331.000 162.360 L 328.600 161.000 303.400 160.938 C 289.540 160.903,277.570 161.012,276.800 161.179 M67.800 271.183 C 61.308 271.800,54.437 278.359,53.802 284.544 C 53.663 285.895,53.606 298.435,53.675 312.411 L 53.800 337.822 55.573 340.811 C 58.075 345.030,61.070 347.706,64.932 349.174 C 67.301 350.075,116.735 349.715,118.600 348.783 C 123.323 346.424,124.548 345.307,127.064 341.064 L 129.000 337.800 129.000 310.200 C 129.000 284.538,128.950 282.516,128.294 281.400 C 124.163 274.384,120.623 271.734,114.612 271.158 C 110.735 270.787,71.754 270.808,67.800 271.183 M174.800 271.186 C 172.696 271.407,171.564 271.830,168.863 273.405 C 165.373 275.440,164.600 276.248,162.360 280.200 L 161.000 282.600 160.884 308.978 C 160.757 337.595,160.765 337.717,162.980 341.395 C 165.256 345.174,165.990 345.818,171.308 348.700 L 172.970 349.600 196.859 349.600 C 222.921 349.600,221.508 349.727,225.594 347.025 C 228.655 345.002,228.904 344.727,231.227 340.811 L 233.000 337.822 233.125 312.411 C 233.194 298.435,233.137 285.895,232.998 284.544 C 232.343 278.164,225.522 271.822,218.600 271.158 C 214.695 270.783,178.423 270.806,174.800 271.186 M278.589 271.206 C 275.843 271.496,274.039 272.347,269.712 275.394 C 268.835 276.012,266.652 279.287,265.310 282.000 C 264.481 283.676,264.002 327.404,264.732 334.698 C 265.318 340.543,267.538 343.853,273.600 347.923 L 275.800 349.400 302.400 349.400 L 329.000 349.400 330.912 348.200 C 335.178 345.523,335.915 344.829,337.776 341.739 C 339.459 338.943,339.705 338.228,340.026 335.200 C 340.463 331.075,340.474 289.903,340.040 285.366 C 339.591 280.682,336.554 275.731,333.012 273.910 C 332.139 273.462,330.960 272.751,330.392 272.331 C 328.502 270.934,289.233 270.081,278.589 271.206 " stroke="none" fill="#b4b4b4" fill-rule="evenodd"></path><path id="path1" d="M0.000 200.000 L 0.000 400.000 22.300 399.972 C 42.907 399.946,49.228 399.687,44.400 399.067 C 43.410 398.940,39.990 398.735,36.800 398.613 C 8.324 397.516,8.234 397.508,7.200 395.922 C 6.870 395.416,5.851 394.268,4.935 393.371 C 3.626 392.088,3.210 391.340,2.990 389.872 C 2.517 386.722,3.059 11.631,3.538 9.800 C 3.771 8.913,4.364 7.932,4.870 7.600 C 5.843 6.960,6.426 6.362,7.535 4.862 C 7.976 4.267,8.881 3.798,10.015 3.579 C 12.355 3.128,388.144 3.113,390.087 3.564 C 391.116 3.803,392.331 4.667,394.033 6.369 L 396.492 8.828 396.871 12.114 C 397.338 16.172,397.543 388.727,397.078 390.919 C 396.855 391.972,396.397 392.657,395.584 393.151 C 394.939 393.543,393.998 394.480,393.492 395.232 C 391.926 397.562,392.136 397.534,369.000 398.406 C 356.380 398.882,353.980 399.089,354.832 399.629 C 355.150 399.830,365.220 399.990,377.700 399.994 L 400.000 400.000 400.000 200.000 L 400.000 0.000 200.000 0.000 L 0.000 0.000 0.000 200.000 M8.147 8.147 L 6.400 9.895 6.400 199.971 L 6.400 390.047 8.100 391.833 L 9.800 393.620 200.000 393.614 C 383.346 393.608,390.234 393.581,391.175 392.879 C 391.711 392.478,392.478 391.712,392.878 391.175 C 393.580 390.235,393.607 383.286,393.613 200.000 L 393.620 9.800 391.833 8.100 L 390.047 6.400 199.971 6.400 L 9.895 6.400 8.147 8.147 M120.774 52.600 C 124.140 54.595,124.617 55.094,127.408 59.552 C 129.270 62.526,129.264 62.405,129.124 91.611 L 129.000 117.422 127.228 120.411 C 124.861 124.405,124.455 124.816,120.664 127.064 L 117.400 129.000 93.200 129.124 C 65.728 129.265,65.717 129.265,62.752 127.408 C 58.294 124.617,57.795 124.140,55.800 120.774 L 53.800 117.400 53.676 91.600 C 53.521 59.346,53.339 60.679,58.623 55.415 C 63.778 50.280,62.467 50.468,92.600 50.540 L 117.400 50.600 120.774 52.600 M224.292 52.334 C 228.895 55.116,232.538 59.897,233.003 63.765 C 233.138 64.884,233.192 77.410,233.124 91.600 L 233.000 117.400 231.018 120.742 C 228.956 124.219,228.296 124.852,224.030 127.441 L 221.460 129.000 197.030 129.000 L 172.600 129.000 169.336 127.064 C 160.738 121.965,160.742 121.985,160.886 88.590 L 161.000 62.200 162.551 59.470 C 164.715 55.662,165.517 54.815,168.865 52.805 C 172.855 50.411,172.062 50.472,198.211 50.540 L 221.422 50.600 224.292 52.334 M327.450 50.771 C 333.703 51.957,339.409 58.405,340.042 65.000 C 340.468 69.432,340.457 110.184,340.029 114.603 C 339.423 120.866,337.072 124.012,329.800 128.294 C 328.686 128.949,326.724 129.000,302.400 129.000 L 276.200 129.000 273.600 127.318 C 267.267 123.220,265.310 120.287,264.729 114.026 C 264.008 106.264,264.485 63.269,265.310 61.600 C 266.707 58.776,268.829 55.639,269.900 54.815 C 272.557 52.771,275.512 51.102,276.995 50.807 C 279.271 50.354,325.080 50.322,327.450 50.771 M117.028 161.196 C 121.013 162.116,124.422 164.881,127.064 169.336 L 129.000 172.600 129.000 200.200 L 129.000 227.800 128.129 229.200 C 127.650 229.970,126.711 231.532,126.042 232.672 C 124.739 234.890,124.309 235.269,120.600 237.457 C 117.284 239.414,115.016 239.578,91.400 239.578 C 64.212 239.578,62.646 239.325,58.090 234.188 C 53.356 228.850,53.517 230.168,53.675 197.989 L 53.800 172.578 55.572 169.589 C 58.204 165.149,61.899 162.105,65.787 161.173 C 67.610 160.736,115.129 160.757,117.028 161.196 M221.099 161.211 C 224.998 162.111,228.519 165.024,231.227 169.589 L 233.000 172.578 233.125 197.989 C 233.283 230.168,233.444 228.850,228.710 234.188 C 224.194 239.280,222.436 239.577,196.800 239.582 C 169.492 239.588,167.451 239.069,162.800 230.944 L 161.000 227.800 160.884 201.422 C 160.812 185.162,160.918 174.339,161.161 173.208 C 162.261 168.080,167.255 162.895,172.600 161.332 C 174.641 160.735,218.562 160.626,221.099 161.211 M331.000 162.360 C 336.698 165.590,339.417 169.458,340.026 175.200 C 340.461 179.312,340.475 220.493,340.042 225.000 C 339.509 230.559,336.319 235.009,330.826 237.858 L 327.851 239.400 302.426 239.400 C 274.222 239.400,276.998 239.648,272.016 236.687 C 268.171 234.402,265.201 229.637,264.761 225.050 C 264.325 220.489,264.337 179.333,264.776 175.160 C 265.321 169.989,267.995 166.028,273.030 162.938 C 276.457 160.834,275.917 160.870,303.400 160.938 L 328.600 161.000 331.000 162.360 M114.612 271.158 C 120.623 271.734,124.163 274.384,128.294 281.400 C 128.950 282.516,129.000 284.538,129.000 310.200 L 129.000 337.800 127.064 341.064 C 124.548 345.307,123.323 346.424,118.600 348.783 C 116.735 349.715,67.301 350.075,64.932 349.174 C 61.070 347.706,58.075 345.030,55.573 340.811 L 53.800 337.822 53.675 312.411 C 53.606 298.435,53.663 285.895,53.802 284.544 C 54.437 278.359,61.308 271.800,67.800 271.183 C 71.754 270.808,110.735 270.787,114.612 271.158 M218.600 271.158 C 225.522 271.822,232.343 278.164,232.998 284.544 C 233.137 285.895,233.194 298.435,233.125 312.411 L 233.000 337.822 231.227 340.811 C 228.904 344.727,228.655 345.002,225.594 347.025 C 221.508 349.727,222.921 349.600,196.859 349.600 L 172.970 349.600 171.308 348.700 C 165.990 345.818,165.256 345.174,162.980 341.395 C 160.765 337.717,160.757 337.595,160.884 308.978 L 161.000 282.600 162.360 280.200 C 164.600 276.248,165.373 275.440,168.863 273.405 C 171.564 271.830,172.696 271.407,174.800 271.186 C 178.423 270.806,214.695 270.783,218.600 271.158 M325.780 271.191 C 328.210 271.446,329.691 271.812,330.392 272.331 C 330.960 272.751,332.139 273.462,333.012 273.910 C 336.554 275.731,339.591 280.682,340.040 285.366 C 340.474 289.903,340.463 331.075,340.026 335.200 C 339.705 338.228,339.459 338.943,337.776 341.739 C 335.915 344.829,335.178 345.523,330.912 348.200 L 329.000 349.400 302.400 349.400 L 275.800 349.400 273.600 347.923 C 267.538 343.853,265.318 340.543,264.732 334.698 C 264.002 327.404,264.481 283.676,265.310 282.000 C 266.652 279.287,268.835 276.012,269.712 275.394 C 274.039 272.347,275.843 271.496,278.589 271.206 C 282.752 270.766,321.622 270.753,325.780 271.191 " stroke="none" fill="#fcfcfc" fill-rule="evenodd"></path></g></svg>