<svg id="svg" version="1.1" xmlns="http://www.w3.org/2000/svg" xmlns:xlink="http://www.w3.org/1999/xlink" width="400" height="400" viewBox="0, 0, 400,400"><g id="svgg"><path id="path0" d="M9.825 3.595 C 8.880 3.777,7.968 4.279,7.545 4.849 C 6.423 6.364,5.845 6.959,4.870 7.600 C 4.364 7.932,3.771 8.913,3.538 9.800 C 3.059 11.631,2.517 386.722,2.990 389.872 C 3.210 391.340,3.626 392.088,4.935 393.371 C 5.851 394.268,6.870 395.416,7.200 395.922 C 8.234 397.508,8.324 397.516,36.800 398.613 C 44.118 398.894,46.507 399.174,45.400 399.621 C 44.960 399.799,114.530 399.954,200.000 399.966 C 291.989 399.979,355.168 399.841,354.832 399.629 C 353.980 399.089,356.380 398.882,369.000 398.406 C 392.136 397.534,391.926 397.562,393.492 395.232 C 393.998 394.480,394.939 393.543,395.584 393.151 C 396.397 392.657,396.855 391.972,397.078 390.919 C 397.543 388.727,397.338 16.172,396.871 12.114 L 396.492 8.828 394.033 6.369 C 392.331 4.667,391.116 3.803,390.087 3.564 C 388.260 3.140,12.031 3.171,9.825 3.595 M391.833 8.100 L 393.620 9.800 393.613 199.983 C 393.605 405.966,393.746 392.542,391.614 390.613 L 390.804 389.880 390.702 233.504 L 390.600 77.129 389.656 76.365 C 388.729 75.614,385.182 75.600,198.356 75.600 C 8.533 75.600,7.998 75.598,7.200 74.800 C 6.413 74.013,6.400 73.467,6.400 41.947 L 6.400 9.895 8.147 8.147 L 9.895 6.400 199.971 6.400 L 390.047 6.400 391.833 8.100 M39.600 41.158 C 38.826 41.373,38.600 41.699,38.600 42.600 C 38.600 44.343,38.155 44.317,69.400 44.354 C 99.791 44.390,100.200 44.367,100.200 42.600 C 100.200 40.833,99.791 40.810,69.400 40.846 C 53.560 40.864,40.150 41.005,39.600 41.158 M219.200 41.158 C 217.579 41.609,217.784 43.641,219.495 44.085 C 222.361 44.827,278.701 44.271,279.479 43.492 C 280.342 42.629,279.833 41.561,278.362 41.149 C 277.085 40.792,220.486 40.800,219.200 41.158 M298.000 41.158 C 296.379 41.609,296.584 43.641,298.295 44.085 C 301.161 44.827,357.501 44.271,358.279 43.492 C 359.142 42.629,358.633 41.561,357.162 41.149 C 355.885 40.792,299.286 40.800,298.000 41.158 M373.911 79.423 L 374.800 80.045 374.800 236.146 C 374.800 360.400,374.698 392.385,374.300 392.923 C 373.832 393.555,362.146 393.599,191.800 393.612 L 9.800 393.625 8.100 391.836 L 6.400 390.047 6.400 235.223 C 6.400 80.933,6.403 80.397,7.200 79.600 C 8.310 78.490,372.328 78.314,373.911 79.423 M38.816 110.981 C 38.097 111.847,38.473 112.928,39.602 113.243 C 40.907 113.606,286.693 113.606,287.998 113.243 C 289.127 112.928,289.503 111.847,288.784 110.981 C 288.054 110.102,39.546 110.102,38.816 110.981 M39.800 145.088 C 37.861 145.568,37.164 149.120,38.731 150.538 C 39.409 151.151,48.669 151.200,163.870 151.200 L 288.276 151.200 289.030 150.366 C 289.975 149.322,289.979 146.607,289.036 145.665 C 288.391 145.020,42.377 144.451,39.800 145.088 M38.881 183.279 C 38.242 183.918,38.271 184.995,38.943 185.552 C 39.982 186.415,162.407 185.968,162.954 185.100 C 163.276 184.589,163.276 184.211,162.954 183.700 C 162.389 182.804,39.773 182.387,38.881 183.279 " stroke="none" fill="#b4b4b4" fill-rule="evenodd"></path><path id="path1" d="M0.000 200.000 L 0.000 400.000 22.300 399.972 C 42.907 399.946,49.228 399.687,44.400 399.067 C 43.410 398.940,39.990 398.735,36.800 398.613 C 8.324 397.516,8.234 397.508,7.200 395.922 C 6.870 395.416,5.851 394.268,4.935 393.371 C 3.626 392.088,3.210 391.340,2.990 389.872 C 2.517 386.722,3.059 11.631,3.538 9.800 C 3.771 8.913,4.364 7.932,4.870 7.600 C 5.843 6.960,6.426 6.362,7.535 4.862 C 7.976 4.267,8.881 3.798,10.015 3.579 C 12.355 3.128,388.144 3.113,390.087 3.564 C 391.116 3.803,392.331 4.667,394.033 6.369 L 396.492 8.828 396.871 12.114 C 397.338 16.172,397.543 388.727,397.078 390.919 C 396.855 391.972,396.397 392.657,395.584 393.151 C 394.939 393.543,393.998 394.480,393.492 395.232 C 391.926 397.562,392.136 397.534,369.000 398.406 C 356.380 398.882,353.980 399.089,354.832 399.629 C 355.150 399.830,365.220 399.990,377.700 399.994 L 400.000 400.000 400.000 200.000 L 400.000 0.000 200.000 0.000 L 0.000 0.000 0.000 200.000 M8.147 8.147 L 6.400 9.895 6.400 41.947 C 6.400 73.467,6.413 74.013,7.200 74.800 C 7.998 75.598,8.533 75.600,198.356 75.600 C 385.182 75.600,388.729 75.614,389.656 76.365 L 390.600 77.129 390.702 233.504 L 390.804 389.880 391.614 390.613 C 393.746 392.542,393.605 405.966,393.613 199.983 L 393.620 9.800 391.833 8.100 L 390.047 6.400 199.971 6.400 L 9.895 6.400 8.147 8.147 M99.200 41.318 C 99.750 41.596,100.200 42.173,100.200 42.600 C 100.200 44.367,99.791 44.390,69.400 44.354 C 38.155 44.317,38.600 44.343,38.600 42.600 C 38.600 41.699,38.826 41.373,39.600 41.158 C 41.563 40.612,98.105 40.764,99.200 41.318 M278.362 41.149 C 279.833 41.561,280.342 42.629,279.479 43.492 C 278.701 44.271,222.361 44.827,219.495 44.085 C 217.784 43.641,217.579 41.609,219.200 41.158 C 220.486 40.800,277.085 40.792,278.362 41.149 M357.162 41.149 C 358.633 41.561,359.142 42.629,358.279 43.492 C 357.501 44.271,301.161 44.827,298.295 44.085 C 296.584 43.641,296.379 41.609,298.000 41.158 C 299.286 40.800,355.885 40.792,357.162 41.149 M7.200 79.600 C 6.403 80.397,6.400 80.933,6.400 235.223 L 6.400 390.047 8.100 391.836 L 9.800 393.625 191.800 393.612 C 362.146 393.599,373.832 393.555,374.300 392.923 C 374.698 392.385,374.800 360.400,374.800 236.146 L 374.800 80.045 373.911 79.423 C 372.328 78.314,8.310 78.490,7.200 79.600 M288.784 110.981 C 289.503 111.847,289.127 112.928,287.998 113.243 C 286.693 113.606,40.907 113.606,39.602 113.243 C 38.473 112.928,38.097 111.847,38.816 110.981 C 39.546 110.102,288.054 110.102,288.784 110.981 M289.036 145.665 C 289.979 146.607,289.975 149.322,289.030 150.366 L 288.276 151.200 163.870 151.200 C 48.669 151.200,39.409 151.151,38.731 150.538 C 37.164 149.120,37.861 145.568,39.800 145.088 C 42.377 144.451,288.391 145.020,289.036 145.665 M162.954 183.700 C 163.276 184.211,163.276 184.589,162.954 185.100 C 162.407 185.968,39.982 186.415,38.943 185.552 C 38.271 184.995,38.242 183.918,38.881 183.279 C 39.773 182.387,162.389 182.804,162.954 183.700 " stroke="none" fill="#fcfcfc" fill-rule="evenodd"></path></g></svg>