<svg id="svg" version="1.1" xmlns="http://www.w3.org/2000/svg" xmlns:xlink="http://www.w3.org/1999/xlink" width="400" height="403.2" viewBox="0, 0, 400,403.2"><g id="svgg"><path id="path0" d="M3.870 1.152 C 3.577 2.617,2.617 3.577,1.152 3.870 L 0.000 4.100 0.000 200.450 C 0.000 389.142,0.028 396.800,0.719 396.800 C 1.114 396.800,2.145 397.524,3.009 398.409 C 5.098 400.549,5.969 400.729,16.433 401.187 C 28.721 401.725,31.597 401.978,32.868 402.635 C 34.513 403.486,365.487 403.486,367.132 402.635 C 368.403 401.978,371.279 401.725,383.567 401.187 C 393.598 400.748,395.197 400.461,396.374 398.890 C 397.829 396.949,398.017 396.800,399.016 396.800 L 400.000 396.800 400.000 200.450 L 400.000 4.100 398.848 3.870 C 397.383 3.577,396.423 2.617,396.130 1.152 L 395.900 -0.000 200.000 -0.000 L 4.100 -0.000 3.870 1.152 M394.847 5.153 L 396.600 6.906 396.701 199.607 C 396.801 388.683,396.788 392.326,396.039 393.251 C 395.288 394.179,395.264 394.182,394.439 393.436 L 393.602 392.678 393.501 200.159 C 393.419 42.833,393.305 7.545,392.880 7.120 C 392.455 6.695,357.167 6.581,199.841 6.498 C 13.054 6.400,7.301 6.375,6.651 5.656 C 5.895 4.821,6.135 3.734,7.134 3.469 C 7.500 3.371,94.491 3.316,200.447 3.346 L 393.094 3.400 394.847 5.153 M328.954 180.100 C 329.276 180.611,329.276 180.989,328.954 181.500 C 328.407 182.368,69.185 182.817,68.142 181.952 C 67.471 181.395,67.442 180.318,68.081 179.679 C 68.974 178.786,328.389 179.204,328.954 180.100 M296.869 199.062 C 297.827 199.929,297.870 203.039,296.938 204.069 C 295.958 205.152,101.128 205.221,99.931 204.138 C 98.973 203.271,98.930 200.161,99.862 199.131 C 100.842 198.048,295.672 197.979,296.869 199.062 M264.954 221.700 C 265.276 222.211,265.276 222.589,264.954 223.100 C 264.407 223.968,136.382 224.415,135.342 223.552 C 134.671 222.995,134.642 221.918,135.281 221.279 C 136.173 220.387,264.389 220.804,264.954 221.700 " stroke="none" fill="#bcbcbc" fill-rule="evenodd"></path><path id="path1" d="M0.000 2.000 C 0.000 3.482,0.150 4.000,0.581 4.000 C 1.688 4.000,3.114 3.107,3.556 2.137 C 4.388 0.311,4.162 0.000,2.000 0.000 L 0.000 0.000 0.000 2.000 M396.000 0.581 C 396.000 1.688,396.893 3.114,397.863 3.556 C 399.689 4.388,400.000 4.162,400.000 2.000 L 400.000 0.000 398.000 0.000 C 396.518 0.000,396.000 0.150,396.000 0.581 M7.134 3.469 C 6.135 3.734,5.895 4.821,6.651 5.656 C 7.301 6.375,13.054 6.400,199.841 6.498 C 357.167 6.581,392.455 6.695,392.880 7.120 C 393.305 7.545,393.419 42.833,393.501 200.159 L 393.602 392.678 394.439 393.436 C 395.264 394.182,395.288 394.179,396.039 393.251 C 396.788 392.326,396.801 388.683,396.701 199.607 L 396.600 6.906 394.847 5.153 L 393.094 3.400 200.447 3.346 C 94.491 3.316,7.500 3.371,7.134 3.469 M68.081 179.679 C 67.442 180.318,67.471 181.395,68.142 181.952 C 69.185 182.817,328.407 182.368,328.954 181.500 C 329.276 180.989,329.276 180.611,328.954 180.100 C 328.389 179.204,68.974 178.786,68.081 179.679 M99.862 199.131 C 98.930 200.161,98.973 203.271,99.931 204.138 C 101.128 205.221,295.958 205.152,296.938 204.069 C 297.870 203.039,297.827 199.929,296.869 199.062 C 295.672 197.979,100.842 198.048,99.862 199.131 M135.281 221.279 C 134.642 221.918,134.671 222.995,135.342 223.552 C 136.382 224.415,264.407 223.968,264.954 223.100 C 265.276 222.589,265.276 222.211,264.954 221.700 C 264.389 220.804,136.173 220.387,135.281 221.279 M0.000 400.000 L 0.000 403.200 16.900 403.186 C 31.548 403.174,33.667 403.098,32.800 402.616 C 31.651 401.976,28.912 401.738,16.433 401.189 C 5.968 400.729,5.098 400.549,3.009 398.409 C 0.530 395.870,0.000 396.151,0.000 400.000 M397.611 397.300 C 397.380 397.575,396.824 398.291,396.374 398.890 C 395.197 400.461,393.599 400.748,383.567 401.189 C 371.088 401.738,368.349 401.976,367.200 402.616 C 366.333 403.098,368.452 403.174,383.100 403.186 L 400.000 403.200 400.000 400.000 C 400.000 396.695,399.036 395.605,397.611 397.300 " stroke="none" fill="#fbfbfb" fill-rule="evenodd"></path></g></svg>