<svg id="svg" version="1.1" xmlns="http://www.w3.org/2000/svg" xmlns:xlink="http://www.w3.org/1999/xlink" width="400" height="403.2258064516129" viewBox="0, 0, 400,403.2258064516129"><g id="svgg"><path id="path0" d="M0.078 2.078 L 0.200 4.200 1.550 4.136 C 2.293 4.100,3.164 3.808,3.486 3.486 C 3.808 3.164,4.100 2.293,4.136 1.550 L 4.200 0.200 2.078 0.078 L -0.043 -0.043 0.078 2.078 M5.277 4.973 L 3.400 6.746 3.287 200.473 C 3.224 307.023,3.281 394.803,3.412 395.540 C 3.567 396.407,4.241 397.429,5.326 398.438 L 7.000 399.997 62.058 399.899 C 115.566 399.803,117.140 399.779,117.958 399.038 L 118.800 398.276 118.800 203.757 C 118.800 56.993,118.914 8.988,119.264 8.219 C 119.661 7.349,121.545 6.738,122.098 7.300 C 122.152 7.355,122.287 95.356,122.398 202.858 C 122.596 394.356,122.615 398.333,123.362 399.158 L 124.124 400.000 251.662 400.000 C 378.667 400.000,379.203 399.997,380.000 399.200 C 380.798 398.402,380.800 397.867,380.800 203.489 C 380.800 27.727,380.861 8.491,381.423 7.689 C 382.329 6.395,395.700 6.292,396.386 7.574 C 396.670 8.104,396.800 69.211,396.800 201.794 C 396.800 406.225,396.731 397.600,398.378 397.600 C 398.574 397.600,399.019 397.709,399.367 397.843 C 399.944 398.064,400.000 380.609,400.000 201.643 C 400.000 7.892,399.989 5.200,399.229 5.200 C 398.804 5.200,398.216 4.958,397.920 4.663 C 397.625 4.368,396.994 3.918,396.518 3.663 C 395.866 3.314,347.801 3.200,201.403 3.200 L 7.153 3.200 5.277 4.973 M347.371 39.429 C 348.161 40.218,348.161 40.582,347.371 41.371 C 346.599 42.143,157.811 42.355,156.374 41.586 C 155.410 41.070,155.369 39.774,156.300 39.232 C 157.612 38.468,346.605 38.662,347.371 39.429 M347.520 74.880 C 348.172 75.532,348.123 76.220,347.371 76.971 C 346.599 77.743,157.811 77.955,156.374 77.186 C 155.509 76.723,155.320 74.980,156.100 74.665 C 157.290 74.185,347.038 74.398,347.520 74.880 M347.628 110.634 C 348.009 111.093,348.038 111.450,347.733 111.934 C 347.317 112.593,159.193 113.251,156.500 112.602 C 155.507 112.362,155.210 110.624,156.100 110.265 C 157.625 109.650,347.114 110.014,347.628 110.634 M308.711 145.823 C 309.818 146.598,309.988 149.955,308.971 150.971 C 308.009 151.934,156.791 151.934,155.829 150.971 C 154.812 149.955,154.982 146.598,156.089 145.823 C 157.447 144.871,307.353 144.871,308.711 145.823 M99.228 362.234 C 99.609 362.693,99.638 363.050,99.333 363.534 C 98.915 364.197,23.536 364.839,20.900 364.202 C 19.907 363.962,19.610 362.224,20.500 361.865 C 22.012 361.255,98.713 361.614,99.228 362.234 M82.971 381.429 C 83.761 382.218,83.761 382.582,82.971 383.371 C 82.202 384.140,22.196 384.347,20.774 383.586 C 19.810 383.070,19.769 381.774,20.700 381.232 C 21.999 380.476,82.208 380.666,82.971 381.429 M0.000 401.400 L 0.000 403.200 1.733 403.200 C 3.864 403.200,4.018 403.058,3.571 401.498 C 2.789 398.773,0.000 398.697,0.000 401.400 " stroke="none" fill="#fcfcfc" fill-rule="evenodd"></path><path id="path1" d="M4.169 1.418 C 4.152 2.196,3.845 3.127,3.486 3.486 C 3.127 3.845,2.196 4.152,1.418 4.169 L 0.002 4.200 0.001 201.900 L 0.000 399.600 1.171 399.600 C 2.922 399.600,3.952 400.972,3.647 402.900 C 3.621 403.065,92.790 403.200,201.800 403.200 L 400.000 403.200 400.000 400.608 C 400.000 398.166,399.941 398.000,398.986 397.761 C 398.428 397.621,397.708 396.996,397.386 396.373 C 396.874 395.382,396.800 370.915,396.800 201.794 C 396.800 69.211,396.670 8.104,396.386 7.574 C 395.700 6.292,382.329 6.395,381.423 7.689 C 380.861 8.491,380.800 27.727,380.800 203.489 C 380.800 397.867,380.798 398.402,380.000 399.200 C 379.203 399.997,378.667 400.000,251.662 400.000 L 124.124 400.000 123.362 399.158 C 122.615 398.333,122.596 394.356,122.398 202.858 C 122.287 95.356,122.152 7.355,122.098 7.300 C 121.545 6.738,119.661 7.349,119.264 8.219 C 118.914 8.988,118.800 56.993,118.800 203.757 L 118.800 398.276 117.958 399.038 C 117.140 399.779,115.566 399.803,62.058 399.899 L 7.000 399.997 5.326 398.438 C 4.241 397.429,3.567 396.407,3.412 395.540 C 3.281 394.803,3.224 307.023,3.287 200.473 L 3.400 6.746 5.277 4.973 L 7.153 3.200 201.403 3.200 C 347.801 3.200,395.866 3.314,396.518 3.663 C 396.994 3.918,397.625 4.368,397.920 4.663 C 399.297 6.039,400.000 5.342,400.000 2.600 L 400.000 0.000 202.100 0.001 L 4.200 0.002 4.169 1.418 M156.300 39.232 C 155.369 39.774,155.410 41.070,156.374 41.586 C 157.811 42.355,346.599 42.143,347.371 41.371 C 348.161 40.582,348.161 40.218,347.371 39.429 C 346.605 38.662,157.612 38.468,156.300 39.232 M156.100 74.665 C 155.320 74.980,155.509 76.723,156.374 77.186 C 157.811 77.955,346.599 77.743,347.371 76.971 C 348.123 76.220,348.172 75.532,347.520 74.880 C 347.038 74.398,157.290 74.185,156.100 74.665 M156.100 110.265 C 155.210 110.624,155.507 112.362,156.500 112.602 C 159.193 113.251,347.317 112.593,347.733 111.934 C 349.028 109.880,354.924 109.997,251.851 110.032 C 199.463 110.049,156.375 110.154,156.100 110.265 M156.089 145.823 C 154.982 146.598,154.812 149.955,155.829 150.971 C 156.791 151.934,308.009 151.934,308.971 150.971 C 309.988 149.955,309.818 146.598,308.711 145.823 C 307.353 144.871,157.447 144.871,156.089 145.823 M20.500 361.865 C 19.610 362.224,19.907 363.962,20.900 364.202 C 23.536 364.839,98.915 364.197,99.333 363.534 C 100.589 361.543,101.726 361.598,59.851 361.632 C 38.483 361.649,20.775 361.754,20.500 361.865 M20.700 381.232 C 19.769 381.774,19.810 383.070,20.774 383.586 C 22.196 384.347,82.202 384.140,82.971 383.371 C 83.761 382.582,83.761 382.218,82.971 381.429 C 82.208 380.666,21.999 380.476,20.700 381.232 " stroke="none" fill="#b4b4b4" fill-rule="evenodd"></path></g></svg>