<svg id="svg" version="1.1" xmlns="http://www.w3.org/2000/svg" xmlns:xlink="http://www.w3.org/1999/xlink" width="400" height="400" viewBox="0, 0, 400,400"><g id="svgg"><path id="path0" d="M4.000 1.200 C 4.000 2.740,2.740 4.000,1.200 4.000 L 0.000 4.000 0.000 200.200 L 0.000 396.400 0.971 396.400 C 2.194 396.400,3.172 397.359,3.470 398.848 L 3.700 400.000 200.000 400.000 L 396.300 400.000 396.530 398.848 C 396.828 397.359,397.806 396.400,399.029 396.400 L 400.000 396.400 400.000 200.200 L 400.000 4.000 398.800 4.000 C 397.260 4.000,396.000 2.740,396.000 1.200 L 396.000 0.000 200.000 0.000 L 4.000 0.000 4.000 1.200 M395.053 4.947 L 396.800 6.695 396.800 200.000 L 396.800 393.305 395.053 395.053 L 393.305 396.800 200.060 396.800 L 6.814 396.800 5.007 395.069 L 3.200 393.337 3.200 200.016 L 3.200 6.695 4.947 4.947 L 6.695 3.200 200.000 3.200 L 393.305 3.200 395.053 4.947 M79.400 80.532 C 74.144 82.069,68.470 87.825,67.555 92.548 C 67.138 94.701,67.138 129.299,67.555 131.452 C 68.468 136.162,75.038 142.732,79.748 143.645 C 81.903 144.063,129.297 144.063,131.452 143.645 C 136.162 142.732,142.732 136.162,143.645 131.452 C 143.821 130.544,143.965 121.790,143.965 112.000 C 143.965 102.210,143.821 93.456,143.645 92.548 C 142.716 87.751,136.489 81.565,131.409 80.391 C 128.950 79.823,81.384 79.952,79.400 80.532 M172.200 80.532 C 166.944 82.069,161.270 87.825,160.355 92.548 C 159.937 94.705,159.937 161.295,160.355 163.452 C 161.268 168.162,167.838 174.732,172.548 175.645 C 174.703 176.063,222.097 176.063,224.252 175.645 C 228.962 174.732,235.532 168.162,236.445 163.452 C 236.863 161.295,236.863 94.705,236.445 92.548 C 235.516 87.751,229.289 81.565,224.209 80.391 C 221.750 79.823,174.184 79.952,172.200 80.532 M265.000 80.532 C 259.744 82.069,254.070 87.825,253.155 92.548 C 252.979 93.456,252.835 102.210,252.835 112.000 C 252.835 121.790,252.979 130.544,253.155 131.452 C 254.068 136.162,260.638 142.732,265.348 143.645 C 267.503 144.063,314.897 144.063,317.052 143.645 C 321.762 142.732,328.332 136.162,329.245 131.452 C 329.662 129.299,329.662 94.701,329.245 92.548 C 328.316 87.751,322.089 81.565,317.009 80.391 C 314.550 79.823,266.984 79.952,265.000 80.532 M79.400 160.532 C 74.144 162.069,68.470 167.825,67.555 172.548 C 67.139 174.696,67.139 193.304,67.555 195.452 C 68.468 200.162,75.038 206.732,79.748 207.645 C 80.656 207.821,92.290 207.965,105.600 207.965 C 118.910 207.965,130.544 207.821,131.452 207.645 C 136.162 206.732,142.732 200.162,143.645 195.452 C 144.061 193.304,144.061 174.696,143.645 172.548 C 142.716 167.751,136.489 161.565,131.409 160.391 C 128.950 159.823,81.384 159.952,79.400 160.532 M265.000 160.532 C 259.744 162.069,254.070 167.825,253.155 172.548 C 252.739 174.696,252.739 193.304,253.155 195.452 C 254.068 200.162,260.638 206.732,265.348 207.645 C 266.256 207.821,277.890 207.965,291.200 207.965 C 304.510 207.965,316.144 207.821,317.052 207.645 C 321.762 206.732,328.332 200.162,329.245 195.452 C 329.661 193.304,329.661 174.696,329.245 172.548 C 328.316 167.751,322.089 161.565,317.009 160.391 C 314.550 159.823,266.984 159.952,265.000 160.532 M172.200 192.532 C 166.944 194.069,161.270 199.825,160.355 204.548 C 159.938 206.701,159.938 241.299,160.355 243.452 C 161.268 248.162,167.838 254.732,172.548 255.645 C 174.703 256.063,222.097 256.063,224.252 255.645 C 228.962 254.732,235.532 248.162,236.445 243.452 C 236.862 241.299,236.862 206.701,236.445 204.548 C 235.516 199.751,229.289 193.565,224.209 192.391 C 221.750 191.823,174.184 191.952,172.200 192.532 M79.400 224.532 C 67.155 228.112,63.348 242.144,72.223 250.985 C 77.367 256.109,76.405 255.965,105.600 255.965 C 134.795 255.965,133.833 256.109,138.977 250.985 C 147.898 242.098,143.665 227.223,131.409 224.391 C 128.950 223.823,81.384 223.952,79.400 224.532 M172.200 272.532 C 166.944 274.069,161.270 279.825,160.355 284.548 C 159.939 286.696,159.939 305.304,160.355 307.452 C 161.268 312.162,167.838 318.732,172.548 319.645 C 173.456 319.821,185.090 319.965,198.400 319.965 C 211.710 319.965,223.344 319.821,224.252 319.645 C 228.962 318.732,235.532 312.162,236.445 307.452 C 236.861 305.304,236.861 286.696,236.445 284.548 C 235.516 279.751,229.289 273.565,224.209 272.391 C 221.750 271.823,174.184 271.952,172.200 272.532 " stroke="none" fill="#b4b4b4" fill-rule="evenodd"></path><path id="path1" d="M0.000 2.000 C 0.000 4.286,1.537 4.863,3.200 3.200 C 4.863 1.537,4.286 0.000,2.000 0.000 L 0.000 0.000 0.000 2.000 M396.000 1.200 C 396.000 2.740,397.260 4.000,398.800 4.000 C 399.973 4.000,400.000 3.956,400.000 2.000 L 400.000 0.000 398.000 0.000 C 396.044 0.000,396.000 0.027,396.000 1.200 M4.947 4.947 L 3.200 6.695 3.200 200.016 L 3.200 393.337 5.007 395.069 L 6.814 396.800 200.060 396.800 L 393.305 396.800 395.053 395.053 L 396.800 393.305 396.800 200.000 L 396.800 6.695 395.053 4.947 L 393.305 3.200 200.000 3.200 L 6.695 3.200 4.947 4.947 M131.409 80.391 C 136.489 81.565,142.716 87.751,143.645 92.548 C 143.821 93.456,143.965 102.210,143.965 112.000 C 143.965 121.790,143.821 130.544,143.645 131.452 C 142.732 136.162,136.162 142.732,131.452 143.645 C 129.297 144.063,81.903 144.063,79.748 143.645 C 75.038 142.732,68.468 136.162,67.555 131.452 C 67.138 129.299,67.138 94.701,67.555 92.548 C 68.470 87.825,74.144 82.069,79.400 80.532 C 81.384 79.952,128.950 79.823,131.409 80.391 M224.209 80.391 C 229.289 81.565,235.516 87.751,236.445 92.548 C 236.863 94.705,236.863 161.295,236.445 163.452 C 235.532 168.162,228.962 174.732,224.252 175.645 C 222.097 176.063,174.703 176.063,172.548 175.645 C 167.838 174.732,161.268 168.162,160.355 163.452 C 159.937 161.295,159.937 94.705,160.355 92.548 C 161.270 87.825,166.944 82.069,172.200 80.532 C 174.184 79.952,221.750 79.823,224.209 80.391 M317.009 80.391 C 322.089 81.565,328.316 87.751,329.245 92.548 C 329.662 94.701,329.662 129.299,329.245 131.452 C 328.332 136.162,321.762 142.732,317.052 143.645 C 314.897 144.063,267.503 144.063,265.348 143.645 C 260.638 142.732,254.068 136.162,253.155 131.452 C 252.979 130.544,252.835 121.790,252.835 112.000 C 252.835 102.210,252.979 93.456,253.155 92.548 C 254.070 87.825,259.744 82.069,265.000 80.532 C 266.984 79.952,314.550 79.823,317.009 80.391 M131.409 160.391 C 136.489 161.565,142.716 167.751,143.645 172.548 C 144.061 174.696,144.061 193.304,143.645 195.452 C 142.732 200.162,136.162 206.732,131.452 207.645 C 130.544 207.821,118.910 207.965,105.600 207.965 C 92.290 207.965,80.656 207.821,79.748 207.645 C 75.038 206.732,68.468 200.162,67.555 195.452 C 67.139 193.304,67.139 174.696,67.555 172.548 C 68.470 167.825,74.144 162.069,79.400 160.532 C 81.384 159.952,128.950 159.823,131.409 160.391 M317.009 160.391 C 322.089 161.565,328.316 167.751,329.245 172.548 C 329.661 174.696,329.661 193.304,329.245 195.452 C 328.332 200.162,321.762 206.732,317.052 207.645 C 316.144 207.821,304.510 207.965,291.200 207.965 C 277.890 207.965,266.256 207.821,265.348 207.645 C 260.638 206.732,254.068 200.162,253.155 195.452 C 252.739 193.304,252.739 174.696,253.155 172.548 C 254.070 167.825,259.744 162.069,265.000 160.532 C 266.984 159.952,314.550 159.823,317.009 160.391 M224.209 192.391 C 229.289 193.565,235.516 199.751,236.445 204.548 C 236.862 206.701,236.862 241.299,236.445 243.452 C 235.532 248.162,228.962 254.732,224.252 255.645 C 222.097 256.063,174.703 256.063,172.548 255.645 C 167.838 254.732,161.268 248.162,160.355 243.452 C 159.938 241.299,159.938 206.701,160.355 204.548 C 161.270 199.825,166.944 194.069,172.200 192.532 C 174.184 191.952,221.750 191.823,224.209 192.391 M131.409 224.391 C 143.665 227.223,147.898 242.098,138.977 250.985 C 133.833 256.109,134.795 255.965,105.600 255.965 C 76.405 255.965,77.367 256.109,72.223 250.985 C 63.348 242.144,67.155 228.112,79.400 224.532 C 81.384 223.952,128.950 223.823,131.409 224.391 M224.209 272.391 C 229.289 273.565,235.516 279.751,236.445 284.548 C 236.861 286.696,236.861 305.304,236.445 307.452 C 235.532 312.162,228.962 318.732,224.252 319.645 C 223.344 319.821,211.710 319.965,198.400 319.965 C 185.090 319.965,173.456 319.821,172.548 319.645 C 167.838 318.732,161.268 312.162,160.355 307.452 C 159.939 305.304,159.939 286.696,160.355 284.548 C 161.270 279.825,166.944 274.069,172.200 272.532 C 174.184 271.952,221.750 271.823,224.209 272.391 M0.000 398.200 L 0.000 400.000 1.800 400.000 C 3.747 400.000,4.026 399.557,3.140 397.874 C 1.928 395.570,0.000 395.771,0.000 398.200 M397.760 396.706 C 397.165 397.103,396.400 398.604,396.400 399.374 C 396.400 399.849,396.833 400.000,398.200 400.000 L 400.000 400.000 400.000 398.200 C 400.000 396.369,399.132 395.790,397.760 396.706 " stroke="none" fill="#fcfcfc" fill-rule="evenodd"></path></g></svg>